<svg width="32" height="32" viewBox="0 0 32 32" fill="none" xmlns="http://www.w3.org/2000/svg">
<path d="M29.7183 17.0476L29.7189 17.0472L23.8937 9.45485C23.8587 9.40923 23.8137 9.37226 23.7621 9.34683C23.7105 9.32139 23.6537 9.30816 23.5962 9.30817H8.40404C8.34652 9.30816 8.28978 9.32139 8.23819 9.34683C8.1866 9.37226 8.14156 9.40923 8.10654 9.45485L2.28123 17.0472L2.28179 17.0476C2.22576 17.1194 2.19804 17.2092 2.20389 17.3001C2.20975 17.391 2.24877 17.4765 2.31354 17.5405L15.7348 30.962C15.7696 30.9968 15.811 31.0244 15.8565 31.0433C15.902 31.0621 15.9507 31.0718 16 31.0718C16.0492 31.0718 16.098 31.0621 16.1435 31.0433C16.189 31.0244 16.2303 30.9968 16.2652 30.962L29.6865 17.5405C29.7513 17.4765 29.7903 17.391 29.7962 17.3001C29.802 17.2092 29.7743 17.1194 29.7183 17.0476ZM23.1391 10.0582L21.8769 16.4128L16.7812 10.0582H23.1391ZM21.3065 16.9004H10.6937L16 10.2825L21.3065 16.9004ZM15.2187 10.0582L10.123 16.4128L8.86085 10.0582H15.2187ZM8.19767 10.5683L9.45535 16.9004H3.33898L8.19767 10.5683ZM3.48392 17.6504H9.67035L14.8062 28.9726L3.48392 17.6504ZM16 29.789L10.4937 17.6504H21.5062L16 29.789ZM17.1937 28.9726L22.3295 17.6504H28.5159L17.1937 28.9726ZM22.5446 16.9004L23.8023 10.5683L28.6609 16.9004H22.5446Z" fill="white"/>
<path d="M8.74195 5.37781L10.7238 5.66581L11.61 7.46168C11.641 7.52443 11.6889 7.57726 11.7483 7.61421C11.8077 7.65115 11.8763 7.67073 11.9463 7.67073C12.0163 7.67073 12.0848 7.65115 12.1443 7.61421C12.2037 7.57726 12.2516 7.52443 12.2826 7.46168L13.1691 5.66581L15.1509 5.37781C15.2201 5.36774 15.2852 5.3385 15.3387 5.2934C15.3922 5.2483 15.432 5.18913 15.4536 5.12258C15.4752 5.05604 15.4778 4.98477 15.461 4.91684C15.4442 4.84891 15.4088 4.78702 15.3587 4.73818L13.9244 3.34031L14.263 1.36656C14.2748 1.29761 14.2671 1.22674 14.2407 1.16195C14.2144 1.09716 14.1704 1.04104 14.1139 0.999915C14.0573 0.958793 13.9903 0.934316 13.9206 0.92925C13.8508 0.924183 13.781 0.938728 13.7191 0.971243L11.9463 1.90312L10.1737 0.971243C10.1118 0.938694 10.042 0.92412 9.97218 0.92917C9.9024 0.93422 9.83542 0.958692 9.77882 0.999818C9.72221 1.04094 9.67825 1.09709 9.65188 1.1619C9.62552 1.2267 9.61782 1.2976 9.62964 1.36656L9.96814 3.34031L8.53414 4.73818C8.48403 4.78702 8.44859 4.84891 8.43183 4.91684C8.41506 4.98477 8.41763 5.05604 8.43925 5.12258C8.46087 5.18913 8.50068 5.2483 8.55417 5.2934C8.60766 5.3385 8.67271 5.36774 8.74195 5.37781ZM10.6328 3.73981C10.6764 3.69736 10.709 3.64496 10.7277 3.58712C10.7465 3.52928 10.751 3.46774 10.7407 3.40781L10.4969 1.98862L11.7715 2.65868C11.8253 2.687 11.8852 2.7018 11.946 2.7018C12.0068 2.7018 12.0667 2.687 12.1205 2.65868L13.3951 1.98862L13.1513 3.40781C13.141 3.46774 13.1455 3.52928 13.1642 3.58711C13.183 3.64495 13.2156 3.69736 13.2591 3.73981L14.2904 4.74487L12.8654 4.95193C12.8052 4.96067 12.7481 4.98392 12.6989 5.01967C12.6497 5.05541 12.6099 5.10258 12.583 5.15712L11.9455 6.44837L11.308 5.15712C11.2811 5.10259 11.2414 5.05543 11.1922 5.01968C11.143 4.98394 11.0859 4.96068 11.0257 4.95193L9.6007 4.74487L10.6328 3.73981Z" fill="white"/>
<path d="M3.50168 10.643C3.53264 10.7057 3.58054 10.7586 3.63996 10.7955C3.69938 10.8325 3.76796 10.8521 3.83793 10.8521C3.90791 10.8521 3.97649 10.8325 4.03593 10.7955C4.09536 10.7586 4.14327 10.7058 4.17424 10.643L5.06055 8.84725L7.0423 8.55919C7.11153 8.5491 7.17656 8.51985 7.23004 8.47474C7.28352 8.42963 7.32331 8.37045 7.34491 8.30391C7.36652 8.23737 7.36908 8.16611 7.35231 8.09819C7.33553 8.03027 7.30009 7.96839 7.24999 7.91956L5.81611 6.52175L6.15468 4.54793C6.16652 4.47896 6.15883 4.40805 6.13247 4.34322C6.10611 4.27839 6.06214 4.22223 6.00552 4.1811C5.94891 4.13996 5.88191 4.11549 5.81211 4.11044C5.74231 4.1054 5.67249 4.11999 5.61055 4.15256L3.83793 5.08456L2.06536 4.15256C2.00342 4.11999 1.9336 4.1054 1.8638 4.11044C1.794 4.11549 1.72701 4.13996 1.67039 4.1811C1.61378 4.22223 1.5698 4.27839 1.54345 4.34322C1.51709 4.40805 1.50939 4.47896 1.52124 4.54793L1.8598 6.52175L0.425739 7.91956C0.375636 7.9684 0.340196 8.03029 0.323428 8.09822C0.30666 8.16615 0.309231 8.23741 0.330851 8.30396C0.352472 8.37051 0.392279 8.42968 0.445772 8.47478C0.499265 8.51988 0.56431 8.54912 0.633551 8.55919L2.61536 8.84725L3.50168 10.643ZM2.52449 6.92118C2.56802 6.87874 2.60058 6.82635 2.61936 6.76852C2.63815 6.7107 2.64259 6.64917 2.6323 6.58925L2.38893 5.17006L3.66343 5.84006C3.71723 5.86838 3.77712 5.88318 3.83793 5.88318C3.89873 5.88318 3.95862 5.86838 4.01243 5.84006L5.28699 5.17006L5.04374 6.58925C5.03346 6.64918 5.03791 6.7107 5.0567 6.76853C5.0755 6.82636 5.10807 6.87875 5.15161 6.92118L6.18286 7.92625L4.75786 8.13337C4.6977 8.14212 4.64057 8.16536 4.59139 8.20109C4.54221 8.23683 4.50246 8.28398 4.47555 8.3385L3.83805 9.62968L3.20055 8.3385C3.17365 8.28398 3.13389 8.23683 3.08471 8.20109C3.03553 8.16536 2.9784 8.14212 2.91824 8.13337L1.49324 7.92625L2.52449 6.92118Z" fill="white"/>
<path d="M16.8499 5.37781L18.8315 5.66581L19.7178 7.46169C19.7488 7.52444 19.7967 7.57727 19.8561 7.61421C19.9155 7.65116 19.9841 7.67073 20.0541 7.67073C20.1241 7.67073 20.1926 7.65116 20.2521 7.61421C20.3115 7.57727 20.3594 7.52444 20.3904 7.46169L21.2766 5.66581L23.2584 5.37781C23.3277 5.36774 23.3927 5.33851 23.4462 5.2934C23.4997 5.2483 23.5395 5.18913 23.5611 5.12259C23.5827 5.05604 23.5853 4.98477 23.5686 4.91684C23.5518 4.84891 23.5163 4.78703 23.4662 4.73819L22.0324 3.34031L22.3709 1.36656C22.3827 1.29764 22.375 1.2268 22.3486 1.16204C22.3223 1.09728 22.2784 1.04118 22.2218 1.00006C22.1652 0.958951 22.0983 0.934466 22.0286 0.929374C21.9589 0.924282 21.8891 0.938786 21.8272 0.971248L20.0542 1.90312L18.2815 0.971248C18.2196 0.938682 18.1497 0.924095 18.0799 0.929136C18.0102 0.934178 17.9432 0.958647 17.8866 0.999776C17.8299 1.0409 17.786 1.09705 17.7596 1.16187C17.7332 1.22669 17.7255 1.29759 17.7374 1.36656L18.0759 3.34031L16.642 4.73819C16.5919 4.78703 16.5565 4.84891 16.5397 4.91684C16.523 4.98477 16.5255 5.05604 16.5472 5.12259C16.5688 5.18913 16.6086 5.2483 16.6621 5.2934C16.7156 5.33851 16.7806 5.36774 16.8499 5.37781ZM18.7408 3.73981C18.7843 3.69736 18.8169 3.64496 18.8357 3.58712C18.8545 3.52928 18.8589 3.46774 18.8486 3.40781L18.6049 1.98862L19.8794 2.65869C19.9332 2.68701 19.9931 2.70181 20.0539 2.70181C20.1147 2.70181 20.1746 2.68701 20.2284 2.65869L21.503 1.98862L21.2596 3.40781C21.2493 3.46775 21.2537 3.52929 21.2725 3.58713C21.2913 3.64497 21.3239 3.69737 21.3674 3.73981L22.3987 4.74487L20.9737 4.95194C20.9135 4.96069 20.8564 4.98394 20.8072 5.01969C20.758 5.05543 20.7183 5.1026 20.6914 5.15712L20.0539 6.44837L19.4164 5.15712C19.3895 5.10259 19.3497 5.05542 19.3005 5.01967C19.2513 4.98393 19.1942 4.96068 19.134 4.95194L17.709 4.74487L18.7408 3.73981Z" fill="white"/>
<path d="M30.1401 6.52175L30.4787 4.54793C30.4905 4.47896 30.4829 4.40805 30.4565 4.34322C30.4301 4.27839 30.3862 4.22223 30.3295 4.1811C30.2729 4.13996 30.2059 4.11549 30.1361 4.11044C30.0663 4.1054 29.9965 4.11999 29.9346 4.15256L28.162 5.08456L26.3894 4.15256C26.3274 4.11999 26.2576 4.1054 26.1878 4.11044C26.118 4.11549 26.051 4.13996 25.9944 4.1811C25.9378 4.22223 25.8938 4.27839 25.8675 4.34322C25.8411 4.40805 25.8334 4.47896 25.8453 4.54793L26.1838 6.52175L24.7499 7.91956C24.6998 7.9684 24.6644 8.03029 24.6476 8.09823C24.6309 8.16616 24.6335 8.23744 24.6551 8.30398C24.6767 8.37053 24.7165 8.4297 24.77 8.4748C24.8235 8.5199 24.8886 8.54913 24.9578 8.55918L26.9396 8.84725L27.8259 10.643C27.8569 10.7057 27.9048 10.7586 27.9642 10.7955C28.0236 10.8325 28.0922 10.852 28.1622 10.852C28.2321 10.852 28.3007 10.8325 28.3602 10.7955C28.4196 10.7586 28.4675 10.7057 28.4985 10.643L29.3848 8.84725L31.3666 8.55918C31.4358 8.54912 31.5009 8.51988 31.5544 8.47478C31.6078 8.42967 31.6477 8.3705 31.6693 8.30396C31.6909 8.23741 31.6935 8.16615 31.6767 8.09822C31.6599 8.03028 31.6245 7.9684 31.5744 7.91956L30.1401 6.52175ZM29.0816 8.13337C29.0214 8.14212 28.9643 8.16536 28.9151 8.20109C28.8659 8.23683 28.8262 8.28398 28.7993 8.3385L28.1618 9.62968L27.5243 8.3385C27.4974 8.28398 27.4576 8.23683 27.4084 8.20109C27.3592 8.16536 27.3021 8.14212 27.242 8.13337L25.8169 7.92625L26.8482 6.92118C26.8917 6.87875 26.9243 6.82636 26.9431 6.76853C26.9619 6.7107 26.9664 6.64918 26.9561 6.58925L26.7126 5.17006L27.9874 5.84006C28.0413 5.86838 28.1011 5.88318 28.162 5.88318C28.2228 5.88318 28.2826 5.86838 28.3364 5.84006L29.6109 5.17006L29.3676 6.58925C29.3573 6.64917 29.3617 6.7107 29.3805 6.76852C29.3993 6.82635 29.4319 6.87874 29.4754 6.92118L30.5066 7.92625L29.0816 8.13337Z" fill="white"/>
</svg>
