<svg width="32" height="32" viewBox="0 0 32 32" fill="none" xmlns="http://www.w3.org/2000/svg">
<g clip-path="url(#clip0)">
<path d="M10.9659 6.3663C9.98987 6.73499 9.29054 7.67121 9.29054 8.77452C9.29054 9.19941 9.40369 9.59481 9.5864 9.94889C8.81222 10.2465 8.2583 10.993 8.2583 11.8712C8.2583 12.7497 8.81222 13.4959 9.5864 13.7938C9.40369 14.1479 9.29054 14.5433 9.29054 14.9679C9.29054 16.0715 9.98987 17.0077 10.9659 17.3762C10.8885 17.5924 10.8389 17.8222 10.8389 18.0647C10.8389 19.2033 11.7648 20.1291 12.9034 20.1291C13.1604 20.1291 13.4041 20.076 13.6312 19.9903C13.9656 20.6805 14.667 21.1614 15.484 21.1614C16.6226 21.1614 17.5485 20.2355 17.5485 19.0969V4.64556C17.5485 3.50723 16.6226 2.58109 15.484 2.58109C14.667 2.58109 13.9656 3.06217 13.6312 3.75218C13.4041 3.6665 13.1604 3.61332 12.9034 3.61332C11.7648 3.61332 10.8389 4.53947 10.8389 5.6778C10.8389 5.92049 10.8885 6.15007 10.9659 6.3663ZM12.9034 4.64556C13.4727 4.64556 13.9356 5.10851 13.9356 5.6778H14.9679C14.9679 5.18184 14.7846 4.73175 14.4921 4.37566C14.6118 3.93817 15.0087 3.61332 15.484 3.61332C16.0533 3.61332 16.5162 4.07627 16.5162 4.64556V19.0969C16.5162 19.6662 16.0533 20.1291 15.484 20.1291C15.0087 20.1291 14.6118 19.8046 14.4921 19.3668C14.7846 19.0107 14.9679 18.5609 14.9679 18.0647H13.9356C13.9356 18.634 13.4727 19.0969 12.9034 19.0969C12.3341 19.0969 11.8711 18.634 11.8711 18.0647C11.8711 17.4954 12.3341 17.0324 12.9034 17.0324V16.0002C12.4006 16.0002 11.9455 16.1882 11.5874 16.4876C10.8689 16.3538 10.3228 15.7247 10.3228 14.9679C10.3228 14.1144 11.0176 13.4196 11.8711 13.4196C12.725 13.4196 13.4195 14.1144 13.4195 14.9679H14.4517C14.4517 13.5451 13.2942 12.3874 11.8711 12.3874C11.288 12.3874 10.7552 12.5892 10.3228 12.9171V12.9035C9.75349 12.9035 9.29054 12.4405 9.29054 11.8712C9.29054 11.3019 9.75349 10.839 10.3228 10.839V10.8256C10.7552 11.1535 11.288 11.3551 11.8711 11.3551C13.2942 11.3551 14.4517 10.1976 14.4517 8.77452H13.4195C13.4195 9.62833 12.725 10.3229 11.8711 10.3229C11.0176 10.3229 10.3228 9.62833 10.3228 8.77452C10.3228 8.01798 10.8689 7.38896 11.5874 7.25514C11.9455 7.55453 12.4006 7.74228 12.9034 7.74228V6.71004C12.3341 6.71004 11.8711 6.24709 11.8711 5.6778C11.8711 5.10851 12.3341 4.64556 12.9034 4.64556Z" fill="white"/>
<path d="M23.2261 3.61332C22.9691 3.61332 22.7256 3.6665 22.4986 3.75218C22.1639 3.06217 21.4626 2.58109 20.6455 2.58109C19.5069 2.58109 18.5811 3.50723 18.5811 4.64556V19.0969C18.5811 20.2355 19.5069 21.1614 20.6455 21.1614C21.4626 21.1614 22.1639 20.6805 22.4986 19.9903C22.7256 20.076 22.9691 20.1291 23.2261 20.1291C24.3647 20.1291 25.2906 19.2033 25.2906 18.0647C25.2906 17.8222 25.2412 17.5924 25.1636 17.3762C26.1396 17.0077 26.839 16.0715 26.839 14.9679C26.839 14.5433 26.7261 14.1479 26.5434 13.7938C27.3175 13.4959 27.8712 12.7497 27.8712 11.8712C27.8712 10.993 27.3175 10.2465 26.5434 9.94889C26.7261 9.59481 26.839 9.19941 26.839 8.77452C26.839 7.67121 26.1396 6.73499 25.1636 6.3663C25.2412 6.15007 25.2906 5.92049 25.2906 5.6778C25.2906 4.53947 24.3647 3.61332 23.2261 3.61332ZM25.8067 8.77452C25.8067 9.62833 25.1122 10.3229 24.2584 10.3229C23.4048 10.3229 22.71 9.62833 22.71 8.77452H21.6778C21.6778 10.1976 22.8355 11.3551 24.2584 11.3551C24.8415 11.3551 25.3743 11.1535 25.8067 10.8256V10.839C26.376 10.839 26.839 11.3019 26.839 11.8712C26.839 12.4405 26.376 12.9035 25.8067 12.9035V12.9171C25.3743 12.5892 24.8415 12.3874 24.2584 12.3874C22.8355 12.3874 21.6778 13.5451 21.6778 14.9679H22.71C22.71 14.1144 23.4048 13.4196 24.2584 13.4196C25.1122 13.4196 25.8067 14.1144 25.8067 14.9679C25.8067 15.7247 25.2606 16.3538 24.5424 16.4876C24.184 16.1882 23.7289 16.0002 23.2261 16.0002V17.0324C23.7954 17.0324 24.2584 17.4954 24.2584 18.0647C24.2584 18.634 23.7954 19.0969 23.2261 19.0969C22.6568 19.0969 22.1939 18.634 22.1939 18.0647H21.1617C21.1617 18.5609 21.3449 19.0107 21.6374 19.3668C21.5177 19.8046 21.1208 20.1291 20.6455 20.1291C20.0762 20.1291 19.6133 19.6662 19.6133 19.0969V4.64556C19.6133 4.07627 20.0762 3.61332 20.6455 3.61332C21.1208 3.61332 21.5177 3.93817 21.6374 4.37566C21.3449 4.73175 21.1617 5.18184 21.1617 5.6778H22.1939C22.1939 5.10851 22.6568 4.64556 23.2261 4.64556C23.7954 4.64556 24.2584 5.10851 24.2584 5.6778C24.2584 6.24709 23.7954 6.71004 23.2261 6.71004V7.74228C23.7289 7.74228 24.184 7.55453 24.5424 7.25514C25.2606 7.38896 25.8067 8.01798 25.8067 8.77452Z" fill="white"/>
<path d="M26.1921 3.21943C23.7803 0.952587 20.6216 -0.183984 17.3066 0.0246816L17.3707 1.05465C20.3996 0.8664 23.2826 1.90217 25.4854 3.97143C27.6893 6.04246 28.9032 8.84861 28.9032 11.8715C28.9032 15.5143 27.0875 18.8923 24.0459 20.9079C22.9968 21.6034 22.203 22.5956 21.7138 23.7422H14.3941C13.8982 22.5873 13.1013 21.588 12.0504 20.8862C8.91592 18.7912 7.1148 15.2925 7.23198 11.5257L6.20025 11.4937C6.07172 15.6186 8.04472 19.4507 11.4771 21.744C12.2352 22.2508 12.8405 22.9408 13.2624 23.7422H11.8713V24.7745H13.6742C13.7742 25.1089 13.8543 25.4516 13.8949 25.8067H12.9035V26.8389H13.9357V28.3873C13.9357 28.6728 14.1671 28.9034 14.4519 28.9034H14.968C14.968 30.6113 16.3568 32.0001 18.0647 32.0001C19.7726 32.0001 21.1614 30.6113 21.1614 28.9034H21.6775C21.9626 28.9034 22.1936 28.6728 22.1936 28.3873V26.8389H23.2259V25.8067H22.2299C22.2665 25.4521 22.3393 25.1084 22.4373 24.7745H24.2581V23.7422H22.8446C23.2604 22.9496 23.8622 22.2682 24.6165 21.7687C27.9468 19.5601 29.9354 15.8606 29.9354 11.8715C29.9354 8.60869 28.5708 5.45477 26.1921 3.21943ZM18.0647 30.9679C16.9261 30.9679 16.0002 30.042 16.0002 28.9034H20.1292C20.1292 30.042 19.2033 30.9679 18.0647 30.9679ZM21.1614 27.8712H14.968V26.8389H21.1614V27.8712ZM21.1982 25.8067H14.9266C14.8921 25.4554 14.8364 25.1101 14.7518 24.7745H21.3587C21.2766 25.1096 21.2289 25.4564 21.1982 25.8067Z" fill="white"/>
<path d="M5.67774 3.61332C6.81633 3.61332 7.74222 4.53947 7.74222 5.6778C7.74222 5.96333 7.97356 6.19392 8.25834 6.19392C8.54336 6.19392 8.77446 5.96333 8.77446 5.6778C8.77446 4.53947 9.70035 3.61332 10.8389 3.61332C11.124 3.61332 11.3551 3.38273 11.3551 3.0972C11.3551 2.81193 11.124 2.58109 10.8389 2.58109C9.70035 2.58109 8.77446 1.6552 8.77446 0.516608C8.77446 0.231331 8.54336 0.000488281 8.25834 0.000488281C7.97356 0.000488281 7.74222 0.231331 7.74222 0.516608C7.74222 1.6552 6.81633 2.58109 5.67774 2.58109C5.39297 2.58109 5.16162 2.81193 5.16162 3.0972C5.16162 3.38273 5.39297 3.61332 5.67774 3.61332ZM8.25834 2.22651C8.48767 2.57126 8.78429 2.86813 9.12904 3.0972C8.78429 3.32653 8.48767 3.62315 8.25834 3.9679C8.02926 3.62315 7.73239 3.32653 7.38764 3.0972C7.73239 2.86813 8.02926 2.57126 8.25834 2.22651Z" fill="white"/>
<path d="M7.74226 8.77455C8.02728 8.77455 8.25837 8.54396 8.25837 8.25843C8.25837 7.97315 8.02728 7.74231 7.74226 7.74231C6.60367 7.74231 5.67778 6.81642 5.67778 5.67783C5.67778 5.39256 5.44668 5.16171 5.16166 5.16171C4.87688 5.16171 4.64554 5.39256 4.64554 5.67783C4.64554 6.81642 3.71965 7.74231 2.58106 7.74231C2.29629 7.74231 2.06494 7.97315 2.06494 8.25843C2.06494 8.54396 2.29629 8.77455 2.58106 8.77455C3.71965 8.77455 4.64554 9.70069 4.64554 10.839C4.64554 11.1246 4.87688 11.3551 5.16166 11.3551C5.44668 11.3551 5.67778 11.1246 5.67778 10.839C5.67778 9.70069 6.60367 8.77455 7.74226 8.77455ZM5.16166 9.12913C4.93258 8.78438 4.63571 8.48776 4.29096 8.25843C4.63571 8.02935 4.93208 7.73248 5.16166 7.38773C5.39099 7.73248 5.68761 8.02885 6.03236 8.25843C5.68761 8.48776 5.39099 8.78438 5.16166 9.12913Z" fill="white"/>
</g>
<defs>
<clipPath id="clip0">
<rect width="32" height="32" fill="white"/>
</clipPath>
</defs>
</svg>
