<svg width="32" height="32" viewBox="0 0 32 32" fill="none" xmlns="http://www.w3.org/2000/svg">
<path d="M1.45164 13.9838H4.13599C4.29476 14.5563 4.52347 15.1071 4.81757 15.6233L2.91762 17.5225C2.8269 17.6132 2.77586 17.7363 2.77586 17.8648C2.77586 17.9933 2.8269 18.1164 2.91762 18.2071L4.97029 20.2603C5.15931 20.449 5.46551 20.449 5.65452 20.2603L7.55466 18.36C8.07085 18.6539 8.62106 18.8828 9.19358 19.0414V21.7257C9.19358 21.993 9.41019 22.2096 9.67745 22.2096H12.5807C12.8479 22.2096 13.0645 21.993 13.0645 21.7257V19.0414C13.6371 18.8828 14.1873 18.6539 14.7035 18.36L16.6036 20.2603C16.7956 20.4418 17.096 20.4418 17.2878 20.2603L19.3409 18.2071C19.4316 18.1164 19.4826 17.9933 19.4826 17.8648C19.4826 17.7363 19.4316 17.6132 19.3409 17.5225L17.4406 15.6233C17.7347 15.1071 17.9634 14.5563 18.1221 13.9838H20.8065C21.0737 13.9838 21.2904 13.7672 21.2904 13.4999V10.5967C21.2904 10.3296 21.0737 10.1128 20.8065 10.1128H18.1221C17.9634 9.5405 17.7347 8.98972 17.4406 8.47353L19.3405 6.57433C19.4312 6.48361 19.4823 6.36056 19.4823 6.23203C19.4823 6.10351 19.4312 5.98046 19.3405 5.88973L17.2878 3.83649C17.0988 3.64767 16.7926 3.64767 16.6036 3.83649L14.7035 5.73682C14.1873 5.4431 13.6369 5.2142 13.0645 5.05543V2.37089C13.0645 2.10382 12.8479 1.88702 12.5807 1.88702H9.67745C9.41019 1.88702 9.19358 2.10382 9.19358 2.37089V5.05543C8.62125 5.2142 8.07085 5.4431 7.55466 5.73682L5.65452 3.83649C5.46248 3.65504 5.16214 3.65504 4.97029 3.83649L2.91724 5.88973C2.82652 5.98046 2.77549 6.10351 2.77549 6.23203C2.77549 6.36056 2.82652 6.48361 2.91724 6.57433L4.81757 8.47353C4.52347 8.98972 4.29476 9.5405 4.13599 10.1128H1.45164C1.18438 10.1128 0.967773 10.3296 0.967773 10.5967V13.4999C0.967773 13.7672 1.18438 13.9838 1.45164 13.9838ZM1.93552 11.0806H4.51459C4.74197 11.0806 4.93873 10.9224 4.9873 10.7003C5.14607 9.97561 5.43318 9.28496 5.83502 8.66122C5.95769 8.46994 5.93047 8.21874 5.76963 8.05789L3.94358 6.23184L5.31241 4.86283L7.13807 6.68888C7.29892 6.8501 7.55031 6.87732 7.74197 6.75446C8.3659 6.35281 9.05636 6.0657 9.78103 5.90674C10.0029 5.85798 10.1613 5.66122 10.1613 5.43384V2.85477H12.0968V5.43384C12.0968 5.66122 12.2552 5.85798 12.4771 5.90674C13.2018 6.0657 13.8922 6.35281 14.5162 6.75446C14.7078 6.87732 14.9592 6.8501 15.1201 6.68888L16.9457 4.86283L18.3142 6.23184L16.4885 8.05732C16.3273 8.21836 16.3002 8.46975 16.4231 8.66122C16.8249 9.28533 17.1117 9.97579 17.2703 10.7007C17.319 10.9227 17.5158 11.0811 17.743 11.0811H20.3226V13.0166H17.743C17.5158 13.0166 17.319 13.1748 17.2703 13.3969C17.1117 14.1216 16.8248 14.812 16.4231 15.4354C16.3004 15.6269 16.3277 15.8781 16.4885 16.0389L18.3145 17.8646L16.9457 19.234L15.1201 17.4077C14.9592 17.2467 14.7078 17.2195 14.5162 17.3424C13.8926 17.7442 13.2023 18.0313 12.4777 18.1901C12.2554 18.2385 12.0968 18.4354 12.0968 18.6628V21.2419H10.1613V18.6628C10.1613 18.4354 10.0027 18.2385 9.78046 18.1901C9.05579 18.0313 8.36552 17.7442 7.74197 17.3424C7.55031 17.2195 7.29892 17.2467 7.13807 17.4077L5.31241 19.234L3.94396 17.865L5.76963 16.0393C5.93085 15.8785 5.95788 15.6271 5.83502 15.4354C5.43318 14.8115 5.14607 14.1208 4.9873 13.396C4.93854 13.1739 4.74197 13.0161 4.51459 13.0161H1.93552V11.0806Z" fill="white"/>
<path d="M11.1293 15.9193C13.2672 15.9193 15.0002 14.1864 15.0002 12.0483C15.0002 9.91039 13.2672 8.17734 11.1293 8.17734C8.99135 8.17734 7.2583 9.91039 7.2583 12.0483C7.26057 14.1851 8.99249 15.917 11.1293 15.9193ZM11.1293 9.14508C12.7325 9.14508 14.0325 10.4451 14.0325 12.0483C14.0325 13.6517 12.7325 14.9515 11.1293 14.9515C9.52607 14.9515 8.22604 13.6517 8.22604 12.0483C8.22774 10.4455 9.52645 9.14678 11.1293 9.14508Z" fill="white"/>
<path d="M11.1292 17.3709C14.0687 17.3709 16.4518 14.988 16.4518 12.0483C16.4518 9.1088 14.0687 6.72574 11.1292 6.72574C8.1897 6.72574 5.80664 9.1088 5.80664 12.0483C5.81023 14.9865 8.19103 17.3675 11.1292 17.3709ZM11.1292 7.69348C13.5344 7.69348 15.4841 9.64314 15.4841 12.0483C15.4841 14.4535 13.5344 16.4032 11.1292 16.4032C8.72404 16.4032 6.77438 14.4535 6.77438 12.0483C6.77703 9.64446 8.72518 7.69613 11.1292 7.69348Z" fill="white"/>
<path d="M28.5484 24.1451V20.2741C28.5484 20.0071 28.3318 19.7903 28.0645 19.7903H27.0968V15.9193C27.0968 15.6522 26.8802 15.4354 26.6129 15.4354H22.2581C21.9908 15.4354 21.7742 15.6522 21.7742 15.9193V19.7903H19.3549C19.0876 19.7903 18.871 20.0071 18.871 20.2741V24.1451H3.38713C2.05157 24.1468 0.969475 25.2289 0.967773 26.5645V27.5322C0.969475 28.8679 2.05157 29.95 3.38713 29.9516H28.5484C29.884 29.95 30.9661 28.8679 30.9678 27.5322V26.5645C30.9661 25.2289 29.884 24.1468 28.5484 24.1451ZM27.5807 24.1451H24.1936V20.758H27.5807V24.1451ZM22.742 16.4032H26.1291V19.7903H22.742V16.4032ZM19.8387 20.758H23.2258V24.1451H19.8387V20.758ZM30 27.5322C30 28.334 29.35 28.9838 28.5484 28.9838H3.38713C2.58553 28.9838 1.93552 28.334 1.93552 27.5322V26.5645C1.93552 25.7629 2.58553 25.1128 3.38713 25.1128H28.5484C29.35 25.1128 30 25.7629 30 26.5645V27.5322Z" fill="white"/>
<path d="M15.9677 25.5967C15.1661 25.5967 14.5161 26.2468 14.5161 27.0483C14.5161 27.8501 15.1661 28.5 15.9677 28.5C16.7693 28.5 17.4193 27.8501 17.4193 27.0483C17.4193 26.2468 16.7693 25.5967 15.9677 25.5967ZM15.9677 27.5322C15.7005 27.5322 15.4839 27.3156 15.4839 27.0483C15.4839 26.7813 15.7005 26.5645 15.9677 26.5645C16.235 26.5645 16.4516 26.7813 16.4516 27.0483C16.4516 27.3156 16.235 27.5322 15.9677 27.5322Z" fill="white"/>
<path d="M11.1289 25.5967C10.3273 25.5967 9.67725 26.2468 9.67725 27.0483C9.67725 27.8501 10.3273 28.5 11.1289 28.5C11.9305 28.5 12.5805 27.8501 12.5805 27.0483C12.5805 26.2468 11.9305 25.5967 11.1289 25.5967ZM11.1289 27.5322C10.8616 27.5322 10.645 27.3156 10.645 27.0483C10.645 26.7813 10.8616 26.5645 11.1289 26.5645C11.3961 26.5645 11.6127 26.7813 11.6127 27.0483C11.6127 27.3156 11.3961 27.5322 11.1289 27.5322Z" fill="white"/>
<path d="M20.8066 25.5967C20.005 25.5967 19.355 26.2468 19.355 27.0483C19.355 27.8501 20.005 28.5 20.8066 28.5C21.6082 28.5 22.2582 27.8501 22.2582 27.0483C22.2582 26.2468 21.6082 25.5967 20.8066 25.5967ZM20.8066 27.5322C20.5393 27.5322 20.3227 27.3156 20.3227 27.0483C20.3227 26.7813 20.5393 26.5645 20.8066 26.5645C21.0739 26.5645 21.2905 26.7813 21.2905 27.0483C21.2905 27.3156 21.0739 27.5322 20.8066 27.5322Z" fill="white"/>
<path d="M6.29048 25.5967C5.48888 25.5967 4.83887 26.2468 4.83887 27.0483C4.83887 27.8501 5.48888 28.5 6.29048 28.5C7.09208 28.5 7.74209 27.8501 7.74209 27.0483C7.74209 26.2468 7.09208 25.5967 6.29048 25.5967ZM6.29048 27.5322C6.02322 27.5322 5.80661 27.3156 5.80661 27.0483C5.80661 26.7813 6.02322 26.5645 6.29048 26.5645C6.55774 26.5645 6.77435 26.7813 6.77435 27.0483C6.77435 27.3156 6.55774 27.5322 6.29048 27.5322Z" fill="white"/>
<path d="M25.645 25.5967C24.8434 25.5967 24.1934 26.2468 24.1934 27.0483C24.1934 27.8501 24.8434 28.5 25.645 28.5C26.4466 28.5 27.0966 27.8501 27.0966 27.0483C27.0966 26.2468 26.4466 25.5967 25.645 25.5967ZM25.645 27.5322C25.3777 27.5322 25.1611 27.3156 25.1611 27.0483C25.1611 26.7813 25.3777 26.5645 25.645 26.5645C25.9122 26.5645 26.1288 26.7813 26.1288 27.0483C26.1288 27.3156 25.9122 27.5322 25.645 27.5322Z" fill="white"/>
</svg>
