<svg width="20" height="11" viewBox="0 0 20 11" fill="none" xmlns="http://www.w3.org/2000/svg">
<g>
<path fill-rule="evenodd" clip-rule="evenodd" d="M6.16737 10.7692C6.09306 10.8424 6.00479 10.9004 5.9076 10.94C5.81042 10.9796 5.70623 11 5.60101 11C5.49579 11 5.3916 10.9796 5.29442 10.94C5.19723 10.9004 5.10896 10.8424 5.03465 10.7692L0.23499 6.05596C0.160494 5.98299 0.10139 5.8963 0.0610628 5.80087C0.0207353 5.70543 -2.28882e-05 5.60312 -2.28882e-05 5.49979C-2.28882e-05 5.39647 0.0207353 5.29416 0.0610628 5.19872C0.10139 5.10329 0.160494 5.0166 0.23499 4.94363L5.03465 0.230371C5.18486 0.0828667 5.38858 0 5.60101 0C5.81344 0 6.01716 0.0828667 6.16737 0.230371C6.31758 0.377874 6.40196 0.577933 6.40196 0.786535C6.40196 0.995137 6.31758 1.1952 6.16737 1.3427L1.93247 5.49979L6.16737 9.65689C6.24186 9.72986 6.30097 9.81654 6.3413 9.91198C6.38162 10.0074 6.40238 10.1097 6.40238 10.2131C6.40238 10.3164 6.38162 10.4187 6.3413 10.5141C6.30097 10.6096 6.24186 10.6962 6.16737 10.7692Z" fill="#202020"/>
<path fill-rule="evenodd" clip-rule="evenodd" d="M20 5.50009C20 5.70843 19.9157 5.90824 19.7657 6.05556C19.6157 6.20288 19.4122 6.28564 19.2001 6.28564L2.40123 6.28564C2.18907 6.28564 1.98561 6.20288 1.83559 6.05556C1.68557 5.90824 1.60129 5.70843 1.60129 5.50009C1.60129 5.29175 1.68557 5.09194 1.83559 4.94462C1.98561 4.7973 2.18907 4.71453 2.40123 4.71453L19.2001 4.71453C19.4122 4.71453 19.6157 4.7973 19.7657 4.94462C19.9157 5.09194 20 5.29175 20 5.50009Z" fill="#202020"/>
</g>
</svg>
