<svg width="25" height="16" viewBox="0 0 25 16" fill="none" xmlns="http://www.w3.org/2000/svg">
<g>
<path fill-rule="evenodd" clip-rule="evenodd" d="M8.70817 14.7079C8.61527 14.801 8.50492 14.8749 8.38343 14.9253C8.26194 14.9758 8.1317 15.0017 8.00017 15.0017C7.86863 15.0017 7.73839 14.9758 7.6169 14.9253C7.49541 14.8749 7.38506 14.801 7.29217 14.7079L1.29216 8.70792C1.19904 8.61503 1.12515 8.50468 1.07474 8.38319C1.02433 8.2617 0.998377 8.13146 0.998377 7.99992C0.998377 7.86839 1.02433 7.73815 1.07474 7.61666C1.12515 7.49517 1.19904 7.38481 1.29216 7.29192L7.29217 1.29192C7.47994 1.10415 7.73461 0.998661 8.00017 0.998661C8.26572 0.998661 8.52039 1.10415 8.70817 1.29192C8.89594 1.4797 9.00143 1.73437 9.00143 1.99992C9.00143 2.26548 8.89594 2.52015 8.70817 2.70792L3.41416 7.99992L8.70817 13.2919C8.80129 13.3848 8.87518 13.4952 8.92559 13.6167C8.976 13.7381 9.00195 13.8684 9.00195 13.9999C9.00195 14.1315 8.976 14.2617 8.92559 14.3832C8.87518 14.5047 8.80129 14.615 8.70817 14.7079Z" fill="white"/>
<path fill-rule="evenodd" clip-rule="evenodd" d="M25 8C25 8.26522 24.8946 8.51957 24.7071 8.70711C24.5196 8.89464 24.2652 9 24 9L3 9C2.73478 9 2.48043 8.89464 2.29289 8.70711C2.10536 8.51957 2 8.26522 2 8C2 7.73478 2.10536 7.48043 2.29289 7.29289C2.48043 7.10536 2.73478 7 3 7L24 7C24.2652 7 24.5196 7.10536 24.7071 7.29289C24.8946 7.48043 25 7.73478 25 8Z" fill="white"/>
</g>
</svg>
