<svg width="25" height="16" viewBox="0 0 25 16" fill="none" xmlns="http://www.w3.org/2000/svg">
<path fill-rule="evenodd" clip-rule="evenodd" d="M16.2918 1.29208C16.3847 1.19895 16.4951 1.12507 16.6166 1.07465C16.7381 1.02424 16.8683 0.998291 16.9998 0.998291C17.1314 0.998291 17.2616 1.02424 17.3831 1.07465C17.5046 1.12507 17.6149 1.19895 17.7078 1.29208L23.7078 7.29208C23.801 7.38497 23.8748 7.49532 23.9253 7.61681C23.9757 7.7383 24.0016 7.86854 24.0016 8.00008C24.0016 8.13161 23.9757 8.26185 23.9253 8.38334C23.8748 8.50483 23.801 8.61519 23.7078 8.70808L17.7078 14.7081C17.5201 14.8959 17.2654 15.0013 16.9998 15.0013C16.7343 15.0013 16.4796 14.8959 16.2918 14.7081C16.1041 14.5203 15.9986 14.2656 15.9986 14.0001C15.9986 13.7345 16.1041 13.4798 16.2918 13.2921L21.5858 8.00008L16.2918 2.70808C16.1987 2.61519 16.1248 2.50484 16.0744 2.38335C16.024 2.26186 15.998 2.13161 15.998 2.00008C15.998 1.86854 16.024 1.7383 16.0744 1.61681C16.1248 1.49532 16.1987 1.38497 16.2918 1.29208Z" fill="white"/>
<path fill-rule="evenodd" clip-rule="evenodd" d="M0 8C0 7.73478 0.105357 7.48043 0.292893 7.29289C0.48043 7.10536 0.734784 7 1 7H22C22.2652 7 22.5196 7.10536 22.7071 7.29289C22.8946 7.48043 23 7.73478 23 8C23 8.26522 22.8946 8.51957 22.7071 8.70711C22.5196 8.89464 22.2652 9 22 9H1C0.734784 9 0.48043 8.89464 0.292893 8.70711C0.105357 8.51957 0 8.26522 0 8Z" fill="white"/>
</svg>
