<svg width="20" height="11" viewBox="0 0 20 11" fill="none" xmlns="http://www.w3.org/2000/svg">
<path fill-rule="evenodd" clip-rule="evenodd" d="M13.8326 0.230782C13.9069 0.157627 13.9952 0.0995869 14.0923 0.0599854C14.1895 0.0203839 14.2937 0 14.3989 0C14.5042 0 14.6083 0.0203839 14.7055 0.0599854C14.8027 0.0995869 14.891 0.157627 14.9653 0.230782L19.7649 4.94404C19.8394 5.01701 19.8985 5.1037 19.9389 5.19913C19.9792 5.29457 19.9999 5.39688 19.9999 5.50021C19.9999 5.60353 19.9792 5.70584 19.9389 5.80128C19.8985 5.89671 19.8394 5.9834 19.7649 6.05637L14.9653 10.7696C14.8151 10.9171 14.6114 11 14.3989 11C14.1865 11 13.9828 10.9171 13.8326 10.7696C13.6824 10.6221 13.598 10.4221 13.598 10.2135C13.598 10.0049 13.6824 9.8048 13.8326 9.6573L18.0675 5.50021L13.8326 1.34311C13.7581 1.27014 13.699 1.18346 13.6587 1.08802C13.6183 0.992584 13.5976 0.890273 13.5976 0.786947C13.5976 0.683621 13.6183 0.58131 13.6587 0.485874C13.699 0.390438 13.7581 0.303753 13.8326 0.230782Z" fill="#202020"/>
<path fill-rule="evenodd" clip-rule="evenodd" d="M0 5.49991C0 5.29157 0.0842794 5.09176 0.234298 4.94444C0.384316 4.79712 0.587784 4.71436 0.799941 4.71436H17.5987C17.8109 4.71436 18.0143 4.79712 18.1644 4.94444C18.3144 5.09176 18.3987 5.29157 18.3987 5.49991C18.3987 5.70825 18.3144 5.90806 18.1644 6.05538C18.0143 6.2027 17.8109 6.28546 17.5987 6.28546H0.799941C0.587784 6.28546 0.384316 6.2027 0.234298 6.05538C0.0842794 5.90806 0 5.70825 0 5.49991Z" fill="#202020"/>
</svg>
