<svg width="16" height="16" viewBox="0 0 16 16" fill="none" xmlns="http://www.w3.org/2000/svg">
<path fill-rule="evenodd" clip-rule="evenodd" d="M8 1C7.46957 1 6.96086 1.21071 6.58579 1.58579C6.21071 1.96086 6 2.46957 6 3V7.5C6 7.63261 5.94732 7.75979 5.85355 7.85355C5.75979 7.94732 5.63261 8 5.5 8C5.36739 8 5.24021 7.94732 5.14645 7.85355C5.05268 7.75979 5 7.63261 5 7.5V3C5 2.20435 5.31607 1.44129 5.87868 0.87868C6.44129 0.31607 7.20435 0 8 0C8.79565 0 9.55871 0.31607 10.1213 0.87868C10.6839 1.44129 11 2.20435 11 3V7.5C11 7.63261 10.9473 7.75979 10.8536 7.85355C10.7598 7.94732 10.6326 8 10.5 8C10.3674 8 10.2402 7.94732 10.1464 7.85355C10.0527 7.75979 10 7.63261 10 7.5V3C10 2.46957 9.78929 1.96086 9.41421 1.58579C9.03914 1.21071 8.53043 1 8 1Z" fill="white"/>
<path fill-rule="evenodd" clip-rule="evenodd" d="M3.40522 6C3.28119 5.99987 3.16153 6.04586 3.0695 6.12902C2.97746 6.21218 2.91963 6.32658 2.90722 6.45L1.99522 13.35C1.97426 13.5586 1.99726 13.7693 2.06275 13.9685C2.12824 14.1677 2.23477 14.3509 2.37545 14.5064C2.51613 14.6619 2.68785 14.7862 2.87952 14.8712C3.07118 14.9562 3.27855 15.0001 3.48822 15H12.5122C12.7219 15.0001 12.9293 14.9562 13.1209 14.8712C13.3126 14.7862 13.4843 14.6619 13.625 14.5064C13.7657 14.3509 13.8722 14.1677 13.9377 13.9685C14.0032 13.7693 14.0262 13.5586 14.0052 13.35L13.0922 6.45C13.0798 6.32675 13.0221 6.21249 12.9303 6.12936C12.8385 6.04622 12.7191 6.00012 12.5952 6H3.40522ZM1.91222 6.35C1.94942 5.97992 2.12278 5.63686 2.39867 5.3874C2.67455 5.13794 3.03328 4.99987 3.40522 5H12.5952C12.9672 4.99987 13.3259 5.13794 13.6018 5.3874C13.8777 5.63686 14.051 5.97992 14.0882 6.35L15.0002 13.252C15.0349 13.5995 14.9963 13.9505 14.887 14.2822C14.7778 14.6139 14.6002 14.919 14.3658 15.1779C14.1314 15.4368 13.8454 15.6437 13.5261 15.7853C13.2069 15.9269 12.8615 16 12.5122 16H3.48822C3.13888 16.0001 2.79341 15.9269 2.47408 15.7853C2.15474 15.6436 1.86864 15.4366 1.63423 15.1776C1.39981 14.9186 1.22227 14.6133 1.11307 14.2815C1.00387 13.9496 0.96543 13.5986 1.00022 13.251L1.91222 6.351V6.35Z" fill="white"/>
</svg>
