<svg width="21" height="24" viewBox="0 0 21 24" fill="none" xmlns="http://www.w3.org/2000/svg">
<path d="M10.6902 3.92576C7.39074 3.95857 4.16218 5.78539 2.34698 8.87455C1.38254 10.5159 0.917927 12.3916 1.01189 14.2645C1.10585 16.1374 1.75417 17.9234 2.87487 19.3966C3.99556 20.8698 5.53829 21.9641 7.30798 22.541C9.07766 23.118 10.9948 23.1517 12.817 22.638C14.6392 22.1242 16.2845 21.086 17.545 19.6547C18.8055 18.2234 19.6245 16.4632 19.8985 14.5968C20.1724 12.7304 19.889 10.8415 19.0841 9.16904C18.2791 7.49659 16.9888 6.11569 15.3763 5.20095M8.82384 8.31615L11.3903 3.94845L6.19276 1" stroke="#202020" stroke-linecap="round" stroke-linejoin="round"/>
</svg>
