<svg width="11" height="10" viewBox="0 0 11 10" fill="none" xmlns="http://www.w3.org/2000/svg">
<path fill-rule="evenodd" clip-rule="evenodd" d="M5.5001 1.83203L5.00714 1.34069C3.85004 0.187365 1.72836 0.585364 0.962457 2.03536C0.602884 2.71736 0.521756 3.70202 1.17834 4.95868C1.81086 6.16868 3.12677 7.61801 5.5001 9.19667C7.87342 7.61801 9.18865 6.16868 9.82185 4.95868C10.4784 3.70135 10.398 2.71736 10.0377 2.03536C9.27184 0.585364 7.15015 0.186698 5.99305 1.34003L5.5001 1.83203ZM5.5001 10C-5.04166 3.24536 2.25431 -2.02663 5.37909 0.76203C5.42034 0.798696 5.46091 0.836696 5.5001 0.876029C5.53889 0.836732 5.57925 0.798925 5.6211 0.762697C8.74519 -2.02796 16.0419 3.24469 5.5001 10Z" fill="#202020"/>
</svg>
